PathFileType	4	(X/Y/Z)	D:\TRACE\spot_10-12-23\spot_arm_body_motion_3_8-platform.trc
DataRate	CameraRate	NumFrames	NumMarkers	Units	OrigDataRate	OrigDataStartFrame	OrigNumFrames
100.00	100.00	      67	5	mm	100.00	876	      7000
Frame#	Time	Left_Front			Right_Front			Left_Aft			Right_Aft			Post			
		X1	Y1	Z1	X2	Y2	Z2	X3	Y3	Z3	X4	Y4	Z4	X5	Y5	Z5	

876	8.750	-782.80133	-28.85803	-649.00067	790.01288	-23.73714	-641.91565	-700.04810	28.82856	487.28677	717.68933	38.37625	574.33643	0.17420	691.08136	-1005.14331	
877	8.760	-782.76648	-28.82498	-648.99200	790.07550	-23.75197	-641.96033	-699.96661	28.79694	487.31931	717.81097	38.33667	574.41833	0.24513	691.13831	-1005.04791	
878	8.770	-782.69861	-28.68356	-649.00055	790.40302	-23.48577	-641.83612	-699.83325	28.66926	487.34943	717.95782	38.37146	574.46417	0.33532	691.23969	-1004.89124	
879	8.780	-782.69257	-28.42856	-648.93646	790.32813	-23.28121	-641.94489	-699.73718	28.61021	487.37668	717.98199	38.22903	574.42865	0.33813	691.45081	-1004.57715	
880	8.790	-782.54895	-28.42894	-648.94055	790.53320	-23.22251	-641.91827	-699.61017	28.50334	487.43497	718.05792	38.17202	574.50562	0.54622	691.73444	-1004.46881	
881	8.800	-782.42963	-28.44574	-648.93079	790.44373	-23.10328	-642.02045	-699.55859	28.45547	487.44080	717.86139	37.52449	573.76526	0.54677	692.05164	-1004.22095	
882	8.810	-782.39032	-28.25958	-648.87537	790.64661	-23.00325	-641.86255	-699.56464	28.36900	487.44675	717.91919	37.40603	573.79065	0.57082	692.41205	-1004.11981	
883	8.820	-782.36609	-28.04225	-648.80719	790.68292	-22.89437	-641.79883	-699.47290	28.28288	487.53357	717.95154	37.29984	573.80255	0.69566	692.69604	-1003.96429	
884	8.830	-781.95068	-28.05852	-649.02191	790.77966	-22.75770	-641.68567	-699.45404	28.11400	487.56149	717.98151	37.17569	573.82404	0.75213	692.97931	-1003.83606	
885	8.840	-782.27765	-27.63560	-648.81287	790.70874	-22.60478	-641.69470	-699.30695	28.00506	487.66895	718.02887	37.01612	573.81323	0.79883	693.13501	-1003.64819	
886	8.850	-782.30945	-27.37976	-648.77936	790.64008	-22.46408	-641.75012	-699.25446	27.80195	487.81497	718.08667	36.86212	573.85901	0.65987	693.34003	-1003.40680	
887	8.860	-782.03302	-27.59940	-648.69244	790.59131	-22.25886	-641.76160	-699.18475	27.60982	487.89160	718.13281	36.62801	573.91418	0.57924	693.49255	-1003.31500	
888	8.870	-782.14551	-27.10542	-648.74939	790.76105	-22.07138	-641.62793	-699.15564	27.51203	487.99036	718.15210	36.48086	573.92542	0.69370	693.78363	-1003.08118	
889	8.880	-782.20966	-26.77621	-648.66473	790.67346	-21.73878	-641.66309	-699.14697	27.37877	487.98578	718.12744	36.26008	573.95825	0.85127	694.41412	-1002.71692	
890	8.890	-782.28912	-26.40369	-648.68597	790.76385	-21.39815	-641.62653	-699.16589	27.25694	488.04373	718.12000	36.08521	574.07190	0.66091	694.76776	-1002.45862	
891	8.900	-782.28973	-26.30957	-648.51752	790.77515	-21.08618	-641.54492	-699.10211	27.02047	488.39066	718.11584	35.91471	574.10358	0.81517	695.13214	-1002.07690	
892	8.910	-782.30908	-26.02741	-648.47284	790.68872	-20.93186	-641.54340	-699.10876	26.88861	488.44574	718.09351	35.78116	574.16412	0.87484	695.29346	-1001.64374	
893	8.920	-782.32947	-25.82144	-648.38092	790.72357	-20.76425	-641.41406	-699.21027	26.74947	488.47342	718.07733	35.63154	574.25238	0.86568	695.78339	-1001.21967	
894	8.930	-782.40710	-25.55560	-648.31689	790.66913	-20.53964	-641.42053	-699.21222	26.61969	488.54144	718.03992	35.43322	574.33466	1.00461	696.07672	-1000.99823	
895	8.940	-782.28839	-25.36177	-648.31085	790.74268	-20.29075	-641.35217	-699.34943	26.41775	488.60168	718.04315	35.24873	574.38806	0.80296	696.68988	-1000.50232	
896	8.950	-782.17316	-25.06979	-648.25098	790.57117	-20.06744	-641.45331	-699.34003	26.23095	488.58334	718.02716	34.96714	574.43829	0.61274	697.12274	-1000.17175	
897	8.960	-782.08667	-24.84355	-648.26129	790.51337	-19.81076	-641.45251	-699.36005	25.97255	488.65060	718.03583	34.71728	574.53217	0.62676	697.42261	-999.85272	
898	8.970	-782.07855	-24.59776	-648.26050	790.48059	-19.50761	-641.36407	-699.45142	25.85370	488.63577	718.04382	34.50571	574.63812	0.58676	697.80542	-999.54871	
899	8.980	-782.14294	-24.29359	-648.16107	790.43463	-19.22761	-641.19238	-699.38623	25.50102	488.85492	718.03424	34.26970	574.72870	0.51140	698.23511	-999.11139	
900	8.990	-782.21124	-24.02127	-648.11584	790.37659	-18.97912	-641.07587	-699.62970	25.40911	488.82877	717.85815	34.05349	574.85425	0.43057	698.82031	-998.93585	
901	9.000	-782.28656	-23.83608	-648.02698	790.27313	-18.72964	-641.00745	-699.77222	25.20873	488.95865	717.68176	33.78390	574.89471	0.21222	699.33447	-998.50885	
902	9.010	-782.58087	-23.33352	-647.94855	790.24310	-18.35472	-640.87994	-699.90485	24.98359	489.05402	717.44843	33.45944	574.93359	0.19712	699.88110	-998.05792	
903	9.020	-782.80402	-22.99909	-647.82709	789.94269	-17.95836	-641.04175	-699.96802	24.77184	489.21292	717.31610	33.18372	574.99866	-0.13759	700.27771	-997.92792	
904	9.030	-782.87305	-22.69246	-647.77252	789.77991	-17.52151	-640.99762	-700.05646	24.48766	489.26328	717.20074	32.91107	575.04565	-0.32131	700.85944	-997.63965	
905	9.040	-783.02094	-22.14783	-647.72076	789.66785	-16.94423	-640.89502	-700.25317	24.18190	489.35907	717.13177	32.62614	575.14911	-0.29673	701.42255	-997.06824	
906	9.050	-783.31976	-21.72607	-647.60272	789.35004	-16.56880	-640.87537	-700.41699	24.00102	489.43530	717.04584	32.41785	575.24408	-0.34361	701.80402	-996.51056	
907	9.060	-783.57367	-21.62720	-647.44885	789.22748	-16.59915	-640.80084	-700.57306	23.89243	489.47180	716.94440	32.20613	575.40704	-0.53063	702.21997	-995.83539	
908	9.070	-783.85065	-21.37529	-647.38892	789.14722	-16.33156	-640.63147	-700.75677	23.71690	489.46667	716.81970	31.97887	575.54956	-0.56306	702.68787	-995.38971	
909	9.080	-783.74707	-20.86792	-647.44873	788.85156	-15.95689	-640.52411	-700.88495	23.58023	489.50900	716.71320	31.83672	575.60718	-0.64184	703.12231	-994.97296	
910	9.090	-784.09265	-20.21045	-647.47321	788.47992	-15.74457	-640.50256	-701.00269	23.43691	489.58951	716.53241	31.44731	575.68207	-0.91348	703.69409	-994.51074	
911	9.100	-784.26422	-19.83243	-647.36328	788.53644	-15.62013	-640.28497	-701.13129	23.21169	489.64749	716.32404	31.19445	575.76074	-1.32348	704.44110	-994.01324	
912	9.110	-784.34503	-19.64302	-647.36334	788.28729	-15.18818	-640.24536	-701.42603	22.84418	489.75952	716.05286	30.94815	575.91626	-1.47211	704.89111	-993.54529	
913	9.120	-784.52576	-19.45419	-647.34875	787.82684	-14.67208	-640.36145	-701.62244	22.55560	489.81537	715.82544	30.50707	576.02985	-1.62804	705.33807	-993.27362	
914	9.130	-784.43182	-19.69420	-647.17072	787.74139	-14.48030	-640.30127	-701.81573	22.24844	489.83978	715.53400	30.18511	576.15387	-1.72686	705.73547	-992.93915	
915	9.140	-784.67810	-19.16545	-647.18536	787.66638	-14.35103	-640.21802	-701.91797	21.96165	489.97189	715.34564	29.95037	576.19641	-1.72962	706.57184	-992.36725	
916	9.150	-784.99805	-18.49922	-647.14417	787.61133	-13.86532	-640.12695	-702.02948	21.86425	490.08862	715.24481	29.80812	576.23267	-2.35920	706.95276	-992.13556	
917	9.160	-785.19165	-18.29495	-647.08459	787.50977	-13.20343	-640.04712	-702.20966	21.75997	490.18225	715.05981	29.72220	576.29449	-2.52393	707.47736	-991.89612	
918	9.170	-785.42944	-18.00366	-646.98151	787.39441	-12.88699	-639.99866	-702.51874	21.55739	490.29294	714.91827	29.57810	576.36145	-2.73038	707.81671	-991.58020	
919	9.180	-785.58423	-17.87410	-646.87347	787.22754	-12.74709	-639.96692	-702.76715	21.28999	490.39355	714.76373	29.20896	576.37549	-2.81512	707.98883	-991.09021	
920	9.190	-785.83606	-17.57102	-646.72253	787.06689	-12.46638	-639.95563	-703.01508	21.10081	490.44354	714.54980	28.87281	576.39832	-2.92723	708.26178	-990.64288	
921	9.200	-786.13104	-17.16568	-646.60083	786.78326	-12.09603	-639.97131	-703.18286	20.96019	490.52078	714.35852	28.66758	576.50842	-3.07236	708.78278	-990.19379	
922	9.210	-786.48718	-16.75889	-646.40985	786.66638	-11.95129	-639.89301	-703.27411	20.80591	490.61081	714.23083	28.39688	576.60992	-3.08574	709.40234	-989.85760	
923	9.220	-786.19543	-16.60144	-646.58466	786.39337	-11.65197	-639.71674	-703.43970	20.77978	490.64499	714.05023	28.22680	576.71271	-3.21567	709.96991	-989.59540	
924	9.230	-786.40302	-16.29375	-646.58740	786.30579	-11.52287	-639.56555	-703.61066	20.65031	490.69550	713.65796	27.86203	576.75916	-3.58809	710.34583	-989.32037	
925	9.240	-786.63782	-16.00923	-646.57440	786.04510	-11.38362	-639.57678	-703.80511	20.30456	490.80640	713.49194	27.65262	576.76892	-3.75773	710.53168	-988.97913	
926	9.250	-786.93890	-15.69268	-646.49628	785.73108	-11.15993	-639.53815	-704.17285	20.02678	490.80316	713.48657	27.94987	577.49384	-4.16337	710.95642	-988.55048	
927	9.260	-787.15613	-15.43334	-646.46271	785.11749	-10.79395	-639.52679	-704.37915	19.78741	491.10983	713.43469	27.85777	577.54932	-4.26655	711.34991	-988.20251	
928	9.270	-787.11627	-15.59441	-646.38940	785.01184	-10.54636	-639.40417	-704.57941	19.71665	491.15295	713.35736	27.75205	577.59967	-4.28313	711.69769	-987.87018	
929	9.280	-787.34906	-15.28300	-646.38831	784.64514	-10.27942	-639.59344	-704.77820	19.61949	491.02670	713.16931	27.56254	577.66998	-4.38533	712.02740	-987.52661	
930	9.290	-787.61841	-14.99725	-646.36218	784.39526	-10.10702	-639.59277	-704.87976	19.47533	490.98807	712.89270	27.24879	577.73694	-4.65548	712.34436	-987.17542	
931	9.300	-788.02173	-14.69286	-646.26245	784.26984	-10.00751	-639.53497	-704.95062	19.29619	491.28448	712.61353	27.02136	577.78479	-5.09226	712.65094	-986.80908	
932	9.310	-788.12988	-14.53428	-646.23041	784.12506	-9.82453	-639.43726	-705.18488	19.09162	491.33963	712.44861	26.90164	577.83533	-5.39266	712.95660	-986.48425	
933	9.320	-788.33368	-14.31787	-646.14514	784.00305	-9.62269	-639.47296	-705.28973	18.92438	491.41711	712.27887	26.81936	577.92505	-5.45366	713.28784	-986.44952	
934	9.330	-788.42188	-14.15897	-646.17627	783.89484	-9.45641	-639.51471	-705.45636	18.75323	491.51224	711.93628	26.33031	577.43152	-5.63754	713.53766	-986.33661	
935	9.340	-788.60425	-13.97376	-646.14777	783.73676	-9.26046	-639.47040	-705.74512	18.63073	491.51315	711.78235	26.48172	577.93726	-5.82104	713.73334	-986.21130	
936	9.350	-788.69934	-13.86979	-646.13995	783.58569	-9.17043	-639.46124	-705.97070	18.48178	491.47632	711.55347	26.30149	578.01837	-5.96394	713.87744	-986.05273	
937	9.360	-788.81683	-13.77201	-646.08453	783.58020	-9.09596	-639.35327	-706.17633	18.46851	491.45737	711.33234	26.13727	578.04584	-6.07910	713.98669	-985.86896	
938	9.370	-788.98517	-13.59004	-646.06836	783.43353	-8.96563	-639.44092	-706.35107	18.47651	491.50522	711.17603	26.05897	578.01221	-6.16874	714.16235	-985.82178	
939	9.380	-789.07178	-13.52079	-646.07996	783.37982	-8.77085	-639.21283	-706.39465	18.42747	491.51883	710.98254	25.97719	578.04755	-6.33379	714.39832	-985.55408	
940	9.390	-789.27600	-13.36123	-645.97595	783.20093	-8.58068	-639.17749	-706.51221	18.38745	491.58963	710.86060	25.92117	578.03802	-6.56743	714.71735	-985.43384	
941	9.400	-789.47308	-13.24952	-645.99988	782.79547	-8.36456	-639.28717	-706.58105	18.32505	491.66727	710.74915	25.82078	578.04907	-6.79485	714.81799	-985.23517	
942	9.410	-789.62335	-13.13657	-645.96588	782.78094	-8.35134	-639.13373	-706.70117	18.27712	491.73163	710.57953	25.78554	578.09180	-6.98706	714.89410	-985.08350	
